<svg xmlns="http://www.w3.org/2000/svg" fill="none" viewBox="0 0 77 123">
  <path fill-rule="evenodd" clip-rule="evenodd" d="M32.577 60.956l-7.91 61.94 4.147-.054 7.911-61.306-4.148-.58z" fill="#D2D2D2"/>
  <path fill-rule="evenodd" clip-rule="evenodd" d="M35.94 60.956l7.91 61.94-4.147-.054-7.911-61.306 4.148-.58zm24.118 0l7.91 61.94-4.147-.054-7.911-61.306 4.148-.58z" fill="#D2D2D2"/>
  <path fill-rule="evenodd" clip-rule="evenodd" d="M6.471 70.693a6.471 6.471 0 110-12.942h23.06a11.088 11.088 0 0011.038-10.04l3.575-37.67A11.088 11.088 0 0155.184 0h9.575c6.462 0 11.554 5.503 11.055 11.945L72.05 60.462a11.088 11.088 0 01-11.055 10.23H6.471z" fill="#D2D2D2"/>
  <path fill-rule="evenodd" clip-rule="evenodd" d="M.001 64.167h54.42c5.79 0 10.605-4.455 11.054-10.228l3.757-48.32a11.04 11.04 0 00-.728-4.906A11.065 11.065 0 0064.582 0h-9.498a11.088 11.088 0 00-11.038 10.037L40.475 47.55a11.088 11.088 0 01-11.038 10.037H6.454a6.454 6.454 0 00-6.453 6.581z" fill="#B2B0B0"/>
</svg>
