<svg xmlns="http://www.w3.org/2000/svg" fill="none" viewBox="0 0 130 68">
  <path d="M23.456 12h.5v-.5h-.5v.5zm-1 55h-.5v.5h.5V67zm23.702-55h.5v-.5h-.5v.5zm-1 55h-.5v.5h.5V67zm24.261 0v.5h.5V67h-.5zm-1-55v-.5h-.5v.5h.5zm24.986 0h.5v-.5h-.5v.5zm-1 55h-.5v.5h.5V67zm24.242-55v-.5h-.5v.5h.5zm1 55v.5h.5V67h-.5zM23.456 11.5h-.5v1h.5v-1zm-1.5.5v1.964h1V12h-1zm0 5.893v3.928h1v-3.928h-1zm0 7.857v3.929h1V25.75h-1zm0 7.857v3.929h1v-3.929h-1zm0 7.857v3.929h1v-3.929h-1zm0 7.857v3.929h1v-3.929h-1zm0 7.858v3.928h1V57.18h-1zm0 7.857V67h1v-1.964h-1zm.5 2.464h.5v-1h-.5v1zm1.5-.5v-1.964h-1V67h1zm0-5.893V57.18h-1v3.928h1zm0-7.857v-3.929h-1v3.929h1zm0-7.857v-3.929h-1v3.929h1zm0-7.857v-3.929h-1v3.929h1zm0-7.857V25.75h-1v3.929h1zm0-7.858v-3.928h-1v3.928h1zm0-7.857V12h-1v1.964h1zM46.158 11.5h-.5v1h.5v-1zm-1.5.5v1.964h1V12h-1zm0 5.893v3.928h1v-3.928h-1zm0 7.857v3.929h1V25.75h-1zm0 7.857v3.929h1v-3.929h-1zm0 7.857v3.929h1v-3.929h-1zm0 7.857v3.929h1v-3.929h-1zm0 7.858v3.928h1V57.18h-1zm0 7.857V67h1v-1.964h-1zm.5 2.464h.5v-1h-.5v1zm1.5-.5v-1.964h-1V67h1zm0-5.893V57.18h-1v3.928h1zm0-7.857v-3.929h-1v3.929h1zm0-7.857v-3.929h-1v3.929h1zm0-7.857v-3.929h-1v3.929h1zm0-7.857V25.75h-1v3.929h1zm0-7.858v-3.928h-1v3.928h1zm0-7.857V12h-1v1.964h1zM69.419 66.5h-.5v1h.5v-1zm-.5.5v-1.964h-1V67h1zm0-5.893V57.18h-1v3.928h1zm0-7.857v-3.929h-1v3.929h1zm0-7.857v-3.929h-1v3.929h1zm0-7.857v-3.929h-1v3.929h1zm0-7.857V25.75h-1v3.929h1zm0-7.858v-3.928h-1v3.928h1zm0-7.857V12h-1v1.964h1zm-.5-1.464h.5v-1h-.5v1zm.5-.5v1.964h1V12h-1zm0 5.893v3.928h1v-3.928h-1zm0 7.857v3.929h1V25.75h-1zm0 7.857v3.929h1v-3.929h-1zm0 7.857v3.929h1v-3.929h-1zm0 7.857v3.929h1v-3.929h-1zm0 7.858v3.928h1V57.18h-1zm0 7.857V67h1v-1.964h-1zM93.405 11.5h-.5v1h.5v-1zm-1.5.5v1.964h1V12h-1zm0 5.893v3.928h1v-3.928h-1zm0 7.857v3.929h1V25.75h-1zm0 7.857v3.929h1v-3.929h-1zm0 7.857v3.929h1v-3.929h-1zm0 7.857v3.929h1v-3.929h-1zm0 7.858v3.928h1V57.18h-1zm0 7.857V67h1v-1.964h-1zm.5 2.464h.5v-1h-.5v1zm1.5-.5v-1.964h-1V67h1zm0-5.893V57.18h-1v3.928h1zm0-7.857v-3.929h-1v3.929h1zm0-7.857v-3.929h-1v3.929h1zm0-7.857v-3.929h-1v3.929h1zm0-7.857V25.75h-1v3.929h1zm0-7.858v-3.928h-1v3.928h1zm0-7.857V12h-1v1.964h1zM2.495 66.5h-.5v1h.5v-1zm-.5.5v-2.057h-1V67h1zm0-6.17v-4.115h-1v4.114h1zm0-8.229v-4.114h-1v4.114h1zm0-8.228V40.26h-1v4.114h1zm0-8.227v-4.114h-1v4.114h1zm0-8.228v-4.114h-1v4.114h1zm0-8.228v-4.114h-1v4.114h1zm-.5-5.671h.5v-1h-.5v1zm.5-.5v2.057h1v-2.057h-1zm0 6.17v4.115h1V19.69h-1zm0 8.229v4.114h1v-4.114h-1zm0 8.227v4.114h1v-4.114h-1zm0 8.228v4.114h1v-4.114h-1zm0 8.228v4.114h1v-4.114h-1zm0 8.228v4.114h1v-4.114h-1zM117.148 67v-1.964h-1V67h1zm0-5.893V57.18h-1v3.928h1zm0-7.857v-3.929h-1v3.929h1zm0-7.857v-3.929h-1v3.929h1zm0-7.857v-3.929h-1v3.929h1zm0-7.857V25.75h-1v3.929h1zm0-7.858v-3.928h-1v3.928h1zm0-7.857V12h-1v1.964h1zm-.5-1.464h.5v-1h-.5v1zm.5-.5v1.964h1V12h-1zm0 5.893v3.928h1v-3.928h-1zm0 7.857v3.929h1V25.75h-1zm0 7.857v3.929h1v-3.929h-1zm0 7.857v3.929h1v-3.929h-1zm0 7.857v3.929h1v-3.929h-1zm0 7.858v3.928h1V57.18h-1zm0 7.857V67h1v-1.964h-1zm.5 1.464h-.5v1h.5v-1z" fill="#EBEBEB"/>
  <path d="M1.488 67L22.57 44.6l21.174 14.778 22.451-26.086L89.37 48.426 117.655 12" stroke="#00CFE8" stroke-width="2.5"/>
  <g filter="url(#hWi_PhN9w_pa)">
    <circle cx="117.789" cy="12" r="8" fill="#fff"/>
    <circle cx="117.789" cy="12" r="5.5" stroke="#00CFE8" stroke-width="5"/>
  </g>
  <defs>
    <filter id="hWi_PhN9w_pa" x="101.789" y="0" width="28" height="28" filterUnits="userSpaceOnUse" color-interpolation-filters="sRGB">
      <feFlood flood-opacity="0" result="BackgroundImageFix"/>
      <feColorMatrix in="SourceAlpha" values="0 0 0 0 0 0 0 0 0 0 0 0 0 0 0 0 0 0 127 0" result="hardAlpha"/>
      <feOffset dx="-2" dy="2"/>
      <feGaussianBlur stdDeviation="3"/>
      <feColorMatrix values="0 0 0 0 0 0 0 0 0 0.811765 0 0 0 0 0.909804 0 0 0 0.6819 0"/>
      <feBlend in2="BackgroundImageFix" result="effect1_dropShadow"/>
      <feBlend in="SourceGraphic" in2="effect1_dropShadow" result="shape"/>
    </filter>
  </defs>
</svg>
