<svg xmlns="http://www.w3.org/2000/svg" fill="none" viewBox="0 0 17 10">
  <path fill-rule="evenodd" clip-rule="evenodd" d="M4.416 1.192H1.144C.512 1.192 0 1.682 0 2.286v1.498c0 1.432 1.214 2.592 2.712 2.592h1.704a.48.48 0 00.49-.469.48.48 0 00-.49-.468H2.712C1.756 5.439.98 4.698.98 3.784V2.286a.16.16 0 01.163-.156h3.272a.48.48 0 00.49-.469.48.48 0 00-.49-.469z" fill="#8C81FF"/>
  <path fill-rule="evenodd" clip-rule="evenodd" d="M15.282 0c.722 0 1.308.56 1.308 1.25v3.125c0 2.25-1.777 4.103-4.063 4.348v.652H6.803v-.667c-2.229-.294-3.944-2.122-3.944-4.333V1.25C2.859.56 3.444 0 4.167 0h11.115z" fill="#7367F0"/>
  <path fill-rule="evenodd" clip-rule="evenodd" d="M2.615 9.072c0-.178.145-.322.323-.322h13.086a.322.322 0 01.02.644l-4.828.307H7.784l-4.867-.307a.322.322 0 01-.302-.322z" fill="#8C81FF"/>
</svg>
