<svg xmlns="http://www.w3.org/2000/svg" fill="none" viewBox="0 0 28 28">
  <circle cx="14" cy="14" r="14" fill="url(#zzk4zk6CNmFa)"/>
  <circle cx="14" cy="14" r="14" fill="url(#zzk4zk6CNmFb)"/>
  <path opacity=".1" fill-rule="evenodd" clip-rule="evenodd" d="M23.177 9.133l.558.095.265.074-.125.332-.008.367-.244.024-.218.263c-.017.091-.178.156-.326.216-.076.03-.149.06-.196.09-.034.022-.067.048-.102.075a.91.91 0 01-.406.206l-.033.142.318.481c.141.077.162.363.18.626.01.135.02.264.044.355.02.07.05.142.08.219.09.216.196.47.115.813-.066.28-.072.29-.164.434a8.04 8.04 0 00-.334.571c-.244.449-.451.603-.65.75a1.602 1.602 0 00-.487.514c-.13.215-.268.298-.411.327.035.093.066.191.097.286.05.155.097.303.156.413.044.082.103.17.165.263.073.11.152.228.219.354l1.109.875-1.03.122-.05.015-.006.01c-.062.09-.16.233-.33.556-.232.444-.487.569-.73.688a1.602 1.602 0 00-.343.206c-.12.17-.23.34-.24.636-.016.44-.387.533-.782.632-.224.057-.456.115-.635.24-.496.343-1.782.894-1.7.4.043-.253.185-.342.324-.43.132-.084.262-.166.302-.383.08-.435-.06-.756-.068-.774-.52-.057-.973-.198-.776-.438.164-.201.333-.213.499-.224.157-.01.311-.02.455-.191a.821.821 0 00.07-.101l.026-.041c-.262-.048-.53-.233-.78-.406a3.243 3.243 0 00-.42-.263c-.101-.048-.222-.091-.351-.138-.365-.131-.79-.284-1.004-.622-.175-.276-.175-.287-.17-.463.004-.115.01-.301-.03-.678-.055-.522.128-.773.303-1.014.144-.198.283-.389.277-.718-.01-.464.44-.589.92-.721.271-.076.552-.153.765-.297a.212.212 0 01.019-.012l-.16-.312-1.085-.457.459-.528.282-.469.382-.891.283.258.52.27c.16 0 .322.24.47.46.076.114.15.222.217.29.05.05.11.1.174.152.101.082.211.172.308.289.166-.128.263-.314.358-.497.146-.28.288-.553.667-.59.003 0-.102-.423-.207-.842l-.066-.261-.023.028c-.021.025-.04.048-.066.074l-.296.767-.263-.537-.018-.024-.007-.002a3.109 3.109 0 00-.383-.074.836.836 0 01-.533-.268.898.898 0 00-.183-.148.68.68 0 00-.411-.011c-.256.074-.38-.11-.511-.306-.075-.111-.152-.226-.257-.3-.291-.205-.85-.801-.55-.849.153-.024.232.036.309.095.073.056.144.111.277.092a.882.882 0 00.432-.182c-.064-.293-.068-.566.107-.504.147.051.185.141.223.23.035.083.07.165.196.21a.522.522 0 00.1.026c-.023-.151.034-.332.087-.5.031-.1.06-.195.072-.277a2.25 2.25 0 00.013-.217c.008-.223.016-.483.17-.663.126-.147.133-.149.235-.179.067-.02.175-.051.385-.144.29-.128.47-.075.64-.025.142.04.278.08.467.015.265-.092.421.129.588.365.094.133.192.271.314.36.002 0 .003.002.005.004l.005.004.15-.146.06-.675.39.15.323.066.585.04-.095.202-.058.333c.03.087-.078.22-.177.342-.051.063-.1.123-.126.172-.02.037-.037.08-.055.124-.028.07-.06.147-.108.221.104.066.23.084.352.101.19.027.373.053.466.252 0 .002.218-.13.436-.264.22-.136.443-.272.444-.27l-.43.664zm-3.1 1.42l-.01.013.56.666.383-.685a.889.889 0 00-.3-.116c-.148-.03-.221-.089-.265-.162-.047.037-.097.072-.146.107a1.595 1.595 0 00-.222.178z" fill="#000"/>
  <path d="M28 13.9C28 21.672 21.73 28 14 28S0 21.672 0 13.9c0-2.497.657-4.847 1.79-6.878-.719-1.028-.974-3.06.645-4.75 0 .65.39 1.763.828 2.596.353.66.73 1.14.998 1.077.61-.143 2.739-.147 3.043 0 .5-.649 1.717-2.448 3.652-2.448-1.083 1.09-4.187 4.896 1.218 4.896h1.217L9.74 10.84s.414.808 0 1.224c-.462-.465-2.435.502-2.435 1.836s1.412 3.06 4.261 3.06 2.13-1.224 3.652-1.224c1.522 0 1.827 1.224 1.827 1.224-2.094 0-3.616 2.448-6.088 2.448 1.218.906 2.021 1.224 3.653 1.224 4.03 0 7.304-3.293 7.304-7.344 0-1.64-.536-3.145-1.436-4.37a7.39 7.39 0 012.921 5.252c.22-.857.341-1.775.341-2.718 0-3.671-1.46-8.592-4.151-10.452A14.059 14.059 0 0128 13.9z" fill="url(#zzk4zk6CNmFc)"/>
  <path opacity=".1" d="M7.225 13.758c0-1.234 2.09-2.13 2.58-1.699.358-.315.132-.867.037-1.059a.568.568 0 01-.181.32C9.155 10.876 7 11.8 7 13.073c0 .297.092.615.261.927-.012-.08-.036-.164-.036-.242z" fill="#000"/>
  <path d="M23.723 11.726c0 .527-.098 2.026-.303 2.787.022.162.049.322.062.487.203-.907.518-3.116.518-4.114 0-2.728-.668-6.102-1.925-8.556A12.162 12.162 0 0020 1c2.413 1.909 3.723 6.958 3.723 10.726z" fill="url(#zzk4zk6CNmFd)"/>
  <path d="M21 9c1.067 1.138 1.702 2.538 1.702 4.063a5.49 5.49 0 01-.36 1.937A5.74 5.74 0 0023 12.357c0-.755-.159-1.476-.436-2.156A8.128 8.128 0 0021 9z" fill="url(#zzk4zk6CNmFe)"/>
  <path opacity=".1" d="M17 16.578s-.066-.285-.285-.578c-1.719.29-3.616 2.512-5.715 2.512.225.188.433.345.637.485 1.876.099 3.68-2.419 5.363-2.419zM2.607 2.844a2.944 2.944 0 01-.116-.688c-.038.04-.062.081-.098.12.062.188.135.38.214.568zM1.505 5.577c.01-.017.015-.034.024-.05-.021-.031-.038-.07-.058-.104.011.052.02.104.034.154zm12.01 22.139C8.902 27.716 4.732 25.876 2 23c2.638 3.016 6.834 5 11.515 5 4.682 0 8.847-1.947 11.485-4.962-2.732 2.875-6.871 4.678-11.485 4.678zM12.549 9L10 10.335s.218.34.193.665L14 9.006h-1.286c-.06 0-.106-.005-.165-.006zM9.182 7C9 5.81 10.44 4.474 11 4c-.432 0-.823.083-1.183.207C9.2 4.955 8.725 6.36 9.182 7z" fill="#000"/>
  <path d="M19.588 1.144c.046.032.089.071.134.105a13.813 13.813 0 00-16.42 3.81l-.04-.068c-.438-.828-.827-1.935-.827-2.58-1.62 1.68-1.364 3.7-.645 4.723A13.974 13.974 0 000 13.976C0 21.706 6.27 28 14 28s14-6.294 14-14.024c0-5.746-3.457-10.677-8.412-12.832z" fill="url(#zzk4zk6CNmFf)"/>
  <defs>
    <linearGradient id="zzk4zk6CNmFb" x1="0" y1="0" x2="0" y2="28" gradientUnits="userSpaceOnUse">
      <stop stop-opacity=".01"/>
      <stop offset="1" stop-opacity=".4"/>
    </linearGradient>
    <linearGradient id="zzk4zk6CNmFd" x1="17.405" y1="19.142" x2="25.088" y2="19.478" gradientUnits="userSpaceOnUse">
      <stop stop-color="#fff" stop-opacity=".5"/>
      <stop offset="1" stop-color="#fff" stop-opacity=".2"/>
    </linearGradient>
    <linearGradient id="zzk4zk6CNmFe" x1="19.417" y1="17.284" x2="23.486" y2="17.451" gradientUnits="userSpaceOnUse">
      <stop stop-color="#fff" stop-opacity=".5"/>
      <stop offset="1" stop-color="#fff" stop-opacity=".2"/>
    </linearGradient>
    <linearGradient id="zzk4zk6CNmFf" x1="-6.424" y1="20.811" x2="20.427" y2="33.331" gradientUnits="userSpaceOnUse">
      <stop stop-color="#fff" stop-opacity=".2"/>
      <stop offset="1" stop-color="#fff" stop-opacity=".01"/>
    </linearGradient>
    <radialGradient id="zzk4zk6CNmFa" cx="0" cy="0" r="1" gradientUnits="userSpaceOnUse" gradientTransform="translate(7.51 -.656) scale(24.5976)">
      <stop stop-color="#15BEF0"/>
      <stop offset=".268" stop-color="#0D91CE"/>
      <stop offset=".53" stop-color="#066DB1"/>
      <stop offset=".742" stop-color="#0257A0"/>
      <stop offset=".878" stop-color="#004E9A"/>
    </radialGradient>
    <radialGradient id="zzk4zk6CNmFc" cx="0" cy="0" r="1" gradientUnits="userSpaceOnUse" gradientTransform="rotate(141.612 9.196 6.695) scale(19.4645 19.3154)">
      <stop stop-color="#FFF203"/>
      <stop offset=".298" stop-color="#FBC40D"/>
      <stop offset=".777" stop-color="#F47E1C"/>
      <stop offset="1" stop-color="#F26322"/>
    </radialGradient>
  </defs>
</svg>
