<svg xmlns="http://www.w3.org/2000/svg" fill="none" viewBox="0 0 39 36">
  <g clip-path="url(#2U2WX4f5klpa)">
    <circle cx="19.157" cy="19.5" r="13.5" stroke="#E9ECEF" stroke-width="4"/>
    <mask id="2U2WX4f5klpb" fill="#fff">
      <path d="M8.818 28.374c-.786.675-.883 1.868-.119 2.566A15.5 15.5 0 1020.935 4.102c-1.028-.118-1.865.738-1.859 1.773.006 1.035.855 1.854 1.878 2.012a11.752 11.752 0 11-9.385 20.586c-.79-.669-1.966-.773-2.751-.099z"/>
    </mask>
    <path d="M11.569 28.473l-2.583 3.054 2.583-3.054zm-2.87 2.467l2.699-2.952-2.699 2.952zM6 33.893a19.5 19.5 0 006.28 3.855l2.822-7.487a11.5 11.5 0 01-3.704-2.273L6 33.893zm6.28 3.855a19.5 19.5 0 009.613 1.06l-1.123-7.922a11.5 11.5 0 01-5.668-.625l-2.821 7.487zm9.613 1.06a19.5 19.5 0 008.939-3.689l-4.79-6.408a11.5 11.5 0 01-5.272 2.175l1.123 7.921zm8.939-3.689a19.501 19.501 0 006.068-7.53l-7.28-3.318a11.501 11.501 0 01-3.578 4.44l4.79 6.408zm6.068-7.53a19.5 19.5 0 001.705-9.518l-7.979.586a11.5 11.5 0 01-1.005 5.614L36.9 27.59zm1.705-9.518a19.5 19.5 0 00-3.078-9.167L28.81 13.25a11.5 11.5 0 011.815 5.406l7.979-.586zm-3.078-9.167a19.5 19.5 0 00-7.104-6.562l-3.801 7.04a11.5 11.5 0 014.19 3.869l6.715-4.347zm-7.104-6.562A19.5 19.5 0 0021.394.13l-.918 7.947a11.5 11.5 0 014.146 1.305l3.801-7.039zm-8.08 9.498a7.751 7.751 0 012.497.84l3.802-7.04a15.75 15.75 0 00-5.076-1.706l-1.223 7.906zm2.497.84a7.75 7.75 0 012.824 2.608l6.716-4.347a15.751 15.751 0 00-5.738-5.3L22.84 12.68zm2.824 2.608a7.752 7.752 0 011.223 3.644l7.979-.586a15.75 15.75 0 00-2.486-7.405l-6.716 4.347zm1.223 3.644a7.751 7.751 0 01-.677 3.784l7.279 3.319a15.75 15.75 0 001.377-7.69l-7.979.587zm-.677 3.784a7.751 7.751 0 01-2.412 2.993l4.79 6.407a15.75 15.75 0 004.901-6.081l-7.28-3.32zm-2.412 2.993a7.752 7.752 0 01-3.553 1.466l1.122 7.92a15.75 15.75 0 007.22-2.979l-4.79-6.407zm-3.553 1.466a7.752 7.752 0 01-3.821-.422l-2.821 7.486a15.75 15.75 0 007.764.857l-1.123-7.921zm-3.821-.422a7.752 7.752 0 01-2.272-1.334l-5.166 6.108a15.75 15.75 0 004.617 2.712l2.82-7.485zm-2.272-1.334c-1.986-1.68-5.38-2.277-7.94-.08l5.21 6.07a2.07 2.07 0 01-1.437.506 1.66 1.66 0 01-1-.388l5.167-6.108zm.924-19.52c.02 3.373 2.697 5.543 5.267 5.941l1.223-7.906c.337.052.67.212.949.5.293.306.557.801.56 1.417l-7.999.048zm6.318-5.77c-3.74-.432-6.336 2.675-6.318 5.77l8-.048c.006 1.024-.916 2.42-2.6 2.225L21.394.13zm-9.996 27.859c1.25 1.143.802 2.755.025 3.422l-5.21-6.071C3.863 27.354 3.22 31.353 6 33.893l5.398-5.905z" fill="#28C76F" mask="url(#2U2WX4f5klpb)"/>
  </g>
  <defs>
    <clipPath id="2U2WX4f5klpa">
      <path fill="#fff" d="M0 0h39v35.852H0z"/>
    </clipPath>
  </defs>
</svg>
