<svg xmlns="http://www.w3.org/2000/svg" fill="none" viewBox="0 0 39 36">
  <g clip-path="url(#RgNL-euuLs9a)">
    <circle cx="19.157" cy="19.5" r="13.5" stroke="#E9ECEF" stroke-width="4"/>
    <mask id="RgNL-euuLs9b" fill="#fff">
      <path d="M7.555 12.253c-.853-.532-1.987-.276-2.416.633a15.5 15.5 0 1015.732-8.791c-1-.111-1.812.72-1.805 1.726.007 1.005.832 1.8 1.826 1.948a11.859 11.859 0 11-12.635 7.06c.396-.924.15-2.043-.702-2.576z"/>
    </mask>
    <path d="M20.892 7.769l.586-3.957-.586 3.957zm-.021-3.674l-.442 3.975.442-3.975zm-15.732 8.79L1.522 11.18l3.617 1.707zM1.522 11.18A19.5 19.5 0 00-.243 21.473l7.96-.81a11.5 11.5 0 011.04-6.07l-7.235-3.414zM-.243 21.473a19.5 19.5 0 005.28 11.476l5.793-5.518a11.5 11.5 0 01-3.114-6.767l-7.959.81zm5.28 11.476A19.5 19.5 0 0016.24 38.78l1.197-7.91a11.5 11.5 0 01-6.608-3.44l-5.792 5.52zM16.24 38.78a19.5 19.5 0 0012.428-2.258l-3.902-6.984a11.5 11.5 0 01-7.33 1.332l-1.196 7.91zm12.428-2.258a19.5 19.5 0 008.437-9.401l-7.364-3.127a11.5 11.5 0 01-4.975 5.544l3.902 6.984zm8.437-9.401a19.5 19.5 0 00.905-12.6l-7.735 2.042a11.5 11.5 0 01-.534 7.43l7.364 3.128zm.905-12.6a19.5 19.5 0 00-7.006-10.51l-4.86 6.354a11.5 11.5 0 014.131 6.198l7.735-2.041zm-7.006-10.51A19.5 19.5 0 0021.313.12l-.884 7.95a11.5 11.5 0 015.715 2.296l4.861-6.354zm-10.698 7.714a7.858 7.858 0 013.625 1.532l4.86-6.354a15.86 15.86 0 00-7.314-3.092l-1.17 7.914zm3.625 1.532a7.859 7.859 0 012.824 4.236l7.735-2.042a15.86 15.86 0 00-5.698-8.548l-4.86 6.354zm2.824 4.236a7.86 7.86 0 01-.365 5.078l7.364 3.127a15.859 15.859 0 00.736-10.247l-7.735 2.042zm-.365 5.078a7.859 7.859 0 01-3.4 3.788l3.902 6.984a15.859 15.859 0 006.862-7.646l-7.364-3.126zm-3.4 3.788a7.859 7.859 0 01-5.009.91l-1.196 7.91a15.86 15.86 0 0010.107-1.836l-3.902-6.984zm-5.009.91a7.859 7.859 0 01-4.516-2.35l-5.793 5.517a15.86 15.86 0 009.113 4.744l1.196-7.91zm-4.516-2.35a7.86 7.86 0 01-2.127-4.625l-7.96.81a15.86 15.86 0 004.294 9.332l5.793-5.517zm-2.127-4.625a7.86 7.86 0 01.594-3.89l-7.353-3.15a15.86 15.86 0 00-1.2 7.85l7.958-.81zm.594-3.89c1.022-2.384.574-5.775-2.26-7.544l-4.237 6.785a2.128 2.128 0 01-.937-1.259 1.75 1.75 0 01.08-1.133l7.354 3.15zm3.133-10.558c.022 3.34 2.675 5.499 5.241 5.879l1.17-7.914c.362.053.716.223 1.008.525.307.318.577.828.581 1.457l-8 .053zM21.313.12c-3.696-.412-6.267 2.658-6.247 5.727l8-.053c.007 1.059-.94 2.465-2.637 2.276l.884-7.95zM8.757 14.593c-.73 1.545-2.423 1.614-3.321 1.053L9.674 8.86C7.07 7.234 3.109 7.815 1.522 11.179l7.235 3.414z" fill="#7367F0" mask="url(#RgNL-euuLs9b)"/>
  </g>
  <defs>
    <clipPath id="RgNL-euuLs9a">
      <path fill="#fff" d="M0 0h39v35.852H0z"/>
    </clipPath>
  </defs>
</svg>
