<svg xmlns="http://www.w3.org/2000/svg" fill="none" viewBox="0 0 39 36">
  <g clip-path="url(#hE3VHxmqehha)">
    <circle cx="19.157" cy="19.5" r="13.5" stroke="#E9ECEF" stroke-width="4"/>
    <mask id="hE3VHxmqehhb" fill="#fff">
      <path d="M7.205 26.013c-.916.499-1.263 1.654-.656 2.503A15.5 15.5 0 1021.026 4.113c-1.036-.126-1.884.733-1.882 1.776 0 1.043.852 1.872 1.882 2.039a11.723 11.723 0 11-11.13 18.76c-.639-.824-1.775-1.174-2.69-.675z"/>
    </mask>
    <path d="M25.04 9.361l2.009-3.46-2.008 3.46zM9.898 26.688l3.16-2.453-3.16 2.453zm11.13-18.76l.637-3.95-.638 3.95zM3.294 30.843a19.501 19.501 0 005.752 5.332l4.148-6.841a11.5 11.5 0 01-3.392-3.145l-6.508 4.654zm5.752 5.332a19.5 19.5 0 009.754 2.822l.146-7.999a11.5 11.5 0 01-5.752-1.664l-4.148 6.84zm9.754 2.822a19.501 19.501 0 009.851-2.465l-3.895-6.987a11.5 11.5 0 01-5.81 1.453l-.146 7.999zm9.851-2.465a19.5 19.5 0 007.276-7.083l-6.88-4.081a11.5 11.5 0 01-4.291 4.177l3.895 6.987zm7.276-7.083a19.5 19.5 0 002.729-9.78l-8-.07a11.5 11.5 0 01-1.61 5.769l6.881 4.081zm2.729-9.78a19.5 19.5 0 00-2.56-9.827l-6.95 3.962a11.5 11.5 0 011.51 5.795l8 .07zm-2.56-9.827a19.5 19.5 0 00-7.152-7.208l-4.016 6.92a11.5 11.5 0 014.219 4.25l6.95-3.962zm-7.152-7.208A19.5 19.5 0 0021.508.142l-.964 7.942a11.5 11.5 0 014.385 1.47l4.016-6.92zm-8.556 9.242c.928.15 1.825.47 2.644.945l4.015-6.92a15.723 15.723 0 00-5.384-1.922l-1.276 7.897zm2.644.945a7.722 7.722 0 012.833 2.854l6.95-3.962A15.723 15.723 0 0027.048 5.9l-4.015 6.92zm2.833 2.854a7.722 7.722 0 011.013 3.892l8 .069a15.722 15.722 0 00-2.063-7.923l-6.95 3.962zm1.013 3.892a7.722 7.722 0 01-1.08 3.873l6.88 4.082a15.722 15.722 0 002.2-7.886l-8-.07zM25.8 23.44a7.722 7.722 0 01-2.882 2.805l3.896 6.988a15.723 15.723 0 005.866-5.711L25.8 23.44zm-2.882 2.805a7.723 7.723 0 01-3.9.976l-.147 7.999c2.777.05 5.517-.635 7.943-1.987l-3.896-6.988zm-3.9.976a7.722 7.722 0 01-3.864-1.117l-4.148 6.84a15.724 15.724 0 007.865 2.276l.146-7.999zm-3.864-1.117a7.721 7.721 0 01-2.096-1.869l-6.32 4.905a15.725 15.725 0 004.268 3.804l4.148-6.84zm-2.096-1.869C11.46 22.18 8.26 20.882 5.29 22.5l3.828 7.025a2.055 2.055 0 01-1.5.193 1.64 1.64 0 01-.882-.578l6.32-4.905zm2.087-18.342c.003 3.382 2.676 5.569 5.245 5.983l1.275-7.897c.33.053.657.212.93.498.29.303.549.796.55 1.408l-8 .008zm6.364-5.75c-3.749-.456-6.367 2.649-6.364 5.75l8-.008c0 1.015-.922 2.403-2.6 2.199l.964-7.942zM9.803 26.188c.983 1.375.207 2.85-.684 3.336L5.291 22.5c-2.723 1.483-4.192 5.27-1.996 8.342l6.508-4.654z" fill="#FF9F43" mask="url(#hE3VHxmqehhb)"/>
  </g>
  <defs>
    <clipPath id="hE3VHxmqehha">
      <path fill="#fff" d="M0 0h39v35.852H0z"/>
    </clipPath>
  </defs>
</svg>
