<svg xmlns="http://www.w3.org/2000/svg" fill="none" viewBox="0 0 42 70">
  <path fill-rule="evenodd" clip-rule="evenodd" d="M29.565.752c.105-.005 3.784 1.59 4.208 2.204 2.76 4.003 7.828 18.092 8.089 21.148.294 3.526-4.847 9.142-4.91 14.246-.056 5.105 2.199 20.474 1.324 21.91-.868 1.435-6.572 8.255-7.762 8.283-1.196.028-2.09-3.553-3.902-3.475-1.806.078-5.571 4.825-7.195 4.791C17.8 69.824 1.045 59.332 2.326 56.342c1.288-2.99 7.265-10.42 6.656-14.493-.602-4.072-5.41-19.107-7.146-24.224-1.729-5.117-3.121-9.194.105-11.396C5.167 4.028 15.666 0 15.666 0l9.399 5.198s3.954-4.42 4.5-4.446z" fill="#FF9F43"/>
  <path fill-rule="evenodd" clip-rule="evenodd" d="M26.223 5.053c2.82 9.268 6.688 18.4 8.238 27.09l-4.507-2.401-4.158 3.114c.294-9.035-1.24-18.521-1.946-27.803h2.373z" fill="#FFF6E1"/>
  <path fill-rule="evenodd" clip-rule="evenodd" d="M9.757 12.17l-.107.749c-1.263 9.306.232 20.6 2.822 22.322 2.644 1.76 12.934.033 12.934 1.426s-14.22 14.158-11.886 20.26c1.284 3.355.854 6.339-1.29 8.951l-.622-.413c-4.857-3.257-10.014-7.415-9.282-9.123 1.288-2.99 7.265-10.42 6.656-14.493-.578-3.91-5.032-17.922-6.923-23.564l-.603-1.789C.756 14.4.173 12.5.032 10.86l.435-.279c6.946-4.402 10.042-3.872 9.29 1.588z" fill="#000" fill-opacity=".16"/>
  <path fill-rule="evenodd" clip-rule="evenodd" d="M13.93.656L15.667 0l9.605 4.929s-1.806 4.543-5.004 2.28c-2.742-1.934-1.585-3.637-3.734-4.515C14.39 1.816 13.93.656 13.93.656z" fill="#FFF6E1"/>
  <path fill-rule="evenodd" clip-rule="evenodd" d="M25.271 4.929c.697 1.529 2.112 2.422 2.844 2.144 1.208-.459.69-2.286 1.165-3.21.341-.654.562-.753.86-1.368.277-.564.289-1.242.218-1.428l-.945-.425s-1.299 1.21-1.903 1.853c-.753.8-2.239 2.434-2.239 2.434z" fill="#FFF6E1"/>
</svg>
