<svg xmlns="http://www.w3.org/2000/svg" fill="none" viewBox="0 0 22 36">
  <path d="M.021 3.667a2.464 2.464 0 013.382-2.3L18.79 7.543a2.464 2.464 0 011.545 2.22l.587 22.128a2.464 2.464 0 01-3.234 2.406L1.848 29.08a2.464 2.464 0 01-1.692-2.326L.02 3.667z" fill="#7596FF"/>
  <path fill-rule="evenodd" clip-rule="evenodd" d="M.771 3.9a2.464 2.464 0 013.267-2.33l15.38 5.302a2.464 2.464 0 011.66 2.33v22.311a2.464 2.464 0 01-3.266 2.33L2.432 28.54a2.464 2.464 0 01-1.66-2.33V3.9z" fill="url(#NssRdqZX2JSa)"/>
  <path d="M1.782 2.222l18.309 6.066v24.871L2.03 26.82 1.782 2.223z" fill="#fff"/>
  <path d="M7.356 2.447a.8.8 0 011.076-.785l6.264 2.31a1.6 1.6 0 011.045 1.432l.079 1.805a.8.8 0 01-1.077.785L8.48 5.684a1.6 1.6 0 01-1.045-1.432l-.078-1.805z" fill="#7367F0"/>
  <path fill-rule="evenodd" clip-rule="evenodd" d="M13.389 11.992a.519.519 0 01.06 1.033l-.06.003-8.141-2.714a.519.519 0 01-.06-1.033l.06-.003 8.14 2.714zm0 5.182a.519.519 0 01.06 1.032l-.06.004-8.141-2.714a.519.519 0 01-.06-1.033l.06-.003 8.14 2.713zm0 5.181a.519.519 0 01.06 1.033l-.06.003-8.141-2.714a.519.519 0 01-.06-1.032l.06-.004 8.14 2.714z" fill="#A7C3FF"/>
  <defs>
    <linearGradient id="NssRdqZX2JSa" x1="-.83" y1="-17.891" x2="-.83" y2="34.969" gradientUnits="userSpaceOnUse">
      <stop stop-color="#7367F0"/>
      <stop offset="1" stop-color="#8CA5FF"/>
    </linearGradient>
  </defs>
</svg>
