<svg xmlns="http://www.w3.org/2000/svg" fill="none" viewBox="0 0 30 38">
  <path fill-rule="evenodd" clip-rule="evenodd" d="M14.987 36.156c3.98-8.843 7.594-17.925 10.903-27.208-7.622 7.058-13.55 15.657-12.706 27.208h1.803z" fill="#57E295"/>
  <path fill-rule="evenodd" clip-rule="evenodd" d="M12.866 37.08C11.925 22 12.324 7.997 20.216 0c-1.088 16.556-3.125 28.219-5.704 37.08h-1.646z" fill="#28C76F"/>
  <path fill-rule="evenodd" clip-rule="evenodd" d="M12.504 35.51C8.094 24.971 3.663 21.951 0 11.134c11.988 6.107 12.74 11.15 15.092 24.374h-2.588z" fill="#57E295"/>
  <path fill-rule="evenodd" clip-rule="evenodd" d="M10.13 35.51L2.22 24.971c3.82 1.07 10.207 2.803 10.207 10.537H10.13z" fill="#28C76F"/>
  <path fill-rule="evenodd" clip-rule="evenodd" d="M17.53 35.51h2.64c1.676-3.441 4.04-5.81 9.757-2.938-3.748-5.609-11.438-7.306-12.397 2.937z" fill="#57E295"/>
  <path fill-rule="evenodd" clip-rule="evenodd" d="M15.102 35.51h2.195c4.028-5.66 5.76-8.125 9.928-12.958-5.491 2.047-11.128 4.832-12.123 12.957z" fill="#28C76F"/>
</svg>
