<svg xmlns="http://www.w3.org/2000/svg" fill="none" viewBox="0 0 52 38">
  <path fill-rule="evenodd" clip-rule="evenodd" d="M37.822 12.802s-.068-4.812 1.637-7.326C41.164 2.96 41.231.29 42.522.378c1.29.087.012 6.295.012 6.295s1.637-.617 2.813-1.398c1.176-.78 4.742-4.631 5.575-3.949 1.413 1.163-.863 7.72-2.102 9.031-1.244 1.312-8.037 5.624-8.037 5.624l-16.64 16.798-3.124-8.534 16.803-11.443z" fill="#FFE0D1"/>
  <path fill-rule="evenodd" clip-rule="evenodd" d="M1.015 11.215c2.786 6.38 7.888 18.1 9.99 21.596 2.636 4.38 6.792 6.309 11.659 3.06 1.291-.863 5.227-4.159 5.227-4.159L23.13 21.365l-3.09 2.517s-5.228-13.233-9.434-20.899c-3.643-6.632-13.83-1.467-9.59 8.232z" fill="#FFB66F"/>
  <path fill-rule="evenodd" clip-rule="evenodd" d="M20.094 23.889s1.404 4.702 1.732 4.43c.328-.272-.25-5.66-.25-5.66l-1.482 1.23z" fill="#000" fill-opacity=".16"/>
  <path fill-rule="evenodd" clip-rule="evenodd" d="M21.945 21.938l3.983 13.168 4.23-3.278-5.888-11.674-2.325 1.784z" fill="#FFEDC2"/>
</svg>
