<svg xmlns="http://www.w3.org/2000/svg" fill="none" viewBox="0 0 94 84">
  <path fill-rule="evenodd" clip-rule="evenodd" d="M73.968 63.29s-.103 8.082 6.641 11.104c6.741 3.02 11.544 2.839 10.932 5.175-.61 2.335-18.156 2.24-19.795.414-1.396-1.554-4.433-16.024-5.27-14.918l7.492-1.774z" fill="url(#20ncyZ6PVcna)"/>
  <path fill-rule="evenodd" clip-rule="evenodd" d="M67.677 69.661s1.417 3.432 1.542 5.512c.126 2.08 3.353 7.995 3.353 7.995l2.549.315.233-2.144s3.69 1.553 6.004 1.8c2.315.249 10.254-.683 11.832-1.978 1.58-1.296.782-3.12-3.775-4.23-4.557-1.112-11.637-4.359-12.984-6.71-1.347-2.351-1.355-2.29-1.355-2.29l.027 3.917s-1.167-2.062-2.543-2.337c-1.377-.275-4.883.15-4.883.15z" fill="#323740"/>
  <path fill-rule="evenodd" clip-rule="evenodd" d="M5.252 0S-6.08 16.86 7.47 24.39c11.571 6.43 47.26-1.102 47.26-1.102s-.632 5.032 0 9.52c1.654 11.72 9.518 31.249 11.181 33.703 2.3 3.393 9.31.834 9.441-1.992.132-2.825-5.283-38.91-6.106-45.792-.82-6.881-3.406-7.88-10.96-9.762-1.736-.432-22.26-5.468-24.14-5.321C17.991 4.905 5.252 0 5.252 0z" fill="#42474F"/>
  <path opacity=".44" fill-rule="evenodd" clip-rule="evenodd" d="M13.485 22.516c11.716 1.296 42.734-1.376 43.98-.162 1.189 1.16.99 21.325 3.659 32.995-2.629-7.071-5.474-16.016-6.394-22.541-.633-4.488 0-9.52 0-9.52l-1.212.238c-6.324 1.213-35.64 6.42-46.05.863C1.364 21.13-.998 16.084.383 9.252c1.665 8.06 6.033 12.482 13.103 13.264z" fill="#fff" fill-opacity=".192"/>
  <ellipse cx="74.241" cy="19.651" rx="1.968" ry="3.567" transform="rotate(13 74.24 19.651)" fill="#fff" fill-opacity=".192"/>
  <ellipse cx="65.051" cy="17.383" rx="2.623" ry="3.892" transform="rotate(-16 65.051 17.383)" fill="#fff" fill-opacity=".192"/>
  <defs>
    <linearGradient id="20ncyZ6PVcna" x1="62.13" y1="58.897" x2="63.129" y2="80.461" gradientUnits="userSpaceOnUse">
      <stop stop-color="#FDC6C6"/>
      <stop offset="1" stop-color="#FAB2B2"/>
    </linearGradient>
  </defs>
</svg>
