<svg xmlns="http://www.w3.org/2000/svg" fill="none" viewBox="0 0 24 24">
  <g clip-path="url(#0YPt1hzlja)">
    <path d="M5.138 14.01l-.808 3.01-2.95.063A11.539 11.539 0 010 11.59c0-1.922.467-3.735 1.296-5.33l2.626.48 1.15 2.61a6.89 6.89 0 00-.371 2.24c0 .85.154 1.666.437 2.418z" fill="#FBBB00"/>
    <path d="M22.98 9.425c.132.701.202 1.426.202 2.166a11.589 11.589 0 01-4.334 9.039h-.001l-3.308-.17-.468-2.922a6.908 6.908 0 002.973-3.527h-6.198V9.425h11.133z" fill="#518EF8"/>
    <path d="M18.847 20.63a11.542 11.542 0 01-7.256 2.552 11.59 11.59 0 01-10.21-6.098l3.756-3.075a6.892 6.892 0 009.934 3.53l3.776 3.09z" fill="#28B446"/>
    <path d="M18.99 2.668l-3.756 3.075a6.894 6.894 0 00-10.162 3.61L1.298 6.259h-.001A11.589 11.589 0 0111.591 0c2.812 0 5.391 1.002 7.398 2.668z" fill="#F14336"/>
  </g>
  <defs>
    <clipPath id="0YPt1hzlja">
      <path fill="#fff" d="M0 0h23.182v23.182H0z"/>
    </clipPath>
  </defs>
</svg>
