<svg xmlns="http://www.w3.org/2000/svg" fill="none" viewBox="0 0 20 24">
  <g clip-path="url(#Q3mX2xQibDa)">
    <path d="M19.11 18.087a12.62 12.62 0 01-1.246 2.244c-.655.935-1.192 1.583-1.605 1.943-.641.59-1.328.892-2.063.91-.528 0-1.164-.151-1.905-.456-.743-.304-1.427-.454-2.051-.454-.655 0-1.358.15-2.11.454-.752.305-1.358.464-1.822.48-.705.03-1.408-.281-2.11-.934-.447-.392-1.007-1.062-1.678-2.012-.72-1.014-1.311-2.19-1.775-3.531C.25 15.282 0 13.88 0 12.522c0-1.555.336-2.897 1.008-4.021a5.916 5.916 0 012.11-2.138 5.67 5.67 0 012.853-.807c.56 0 1.295.174 2.207.515.91.342 1.495.515 1.75.515.192 0 .841-.202 1.942-.607 1.04-.375 1.919-.53 2.638-.47 1.95.159 3.414.928 4.388 2.315-1.743 1.058-2.606 2.54-2.589 4.441.016 1.481.553 2.714 1.607 3.692a5.277 5.277 0 001.604 1.055 17.34 17.34 0 01-.409 1.075zM14.637.465c0 1.16-.423 2.244-1.267 3.247-1.019 1.193-2.25 1.882-3.586 1.773a3.617 3.617 0 01-.027-.44c0-1.114.484-2.306 1.344-3.281.43-.494.976-.905 1.638-1.232.66-.323 1.286-.5 1.874-.531.017.155.024.31.024.464z" fill="#000"/>
  </g>
  <defs>
    <clipPath id="Q3mX2xQibDa">
      <path fill="#fff" d="M0 0h19.518v23.209H0z"/>
    </clipPath>
  </defs>
</svg>
