<svg xmlns="http://www.w3.org/2000/svg" fill="none" viewBox="0 0 39 36">
  <g clip-path="url(#91VjC5DFt2xa)">
    <circle cx="19.157" cy="19.5" r="13.5" stroke="#E9ECEF" stroke-width="4"/>
    <mask id="91VjC5DFt2xb" fill="#fff">
      <path d="M24.475 31.927c.43 1.007 1.605 1.485 2.548.929a15.5 15.5 0 00-5.812-28.719c-1.085-.145-1.981.751-1.986 1.847-.006 1.095.884 1.97 1.962 2.162a11.534 11.534 0 014.255 21.026c-.918.596-1.398 1.748-.967 2.755z"/>
    </mask>
    <path d="M25.442 29.172l-2.18-3.354 2.18 3.354zm-4.23-25.035l.53-3.965-.53 3.965zm7.841 32.166a19.5 19.5 0 007.37-7.74l-7.084-3.718a11.5 11.5 0 01-4.346 4.564l4.06 6.894zm7.37-7.74a19.5 19.5 0 001.847-12.93l-7.841 1.586a11.5 11.5 0 01-1.09 7.626l7.084 3.719zm1.847-12.93a19.5 19.5 0 00-6.73-11.196l-5.08 6.18a11.5 11.5 0 013.969 6.602l7.84-1.587zM31.54 4.437A19.5 19.5 0 0021.741.172l-1.06 7.93a11.5 11.5 0 015.78 2.515l5.08-6.18zm-11.057 7.647a7.534 7.534 0 013.459 1.597l5.08-6.18a15.534 15.534 0 00-7.13-3.292l-1.409 7.875zm3.459 1.597a7.534 7.534 0 012.6 4.325l7.84-1.587a15.534 15.534 0 00-5.36-8.918l-5.08 6.18zm2.6 4.325a7.534 7.534 0 01-.714 4.996l7.083 3.718c1.66-3.162 2.18-6.8 1.471-10.3l-7.84 1.586zm-.714 4.996a7.534 7.534 0 01-2.566 2.816l4.36 6.708a15.532 15.532 0 005.29-5.806l-7.084-3.718zm-2.566 2.816c-2.189 1.422-3.818 4.52-2.465 7.683l7.355-3.147a1.95 1.95 0 01.052 1.43 1.48 1.48 0 01-.582.742l-4.36-6.708zM21.742.172c-3.823-.51-6.502 2.648-6.517 5.792l8 .04c-.005.953-.893 2.319-2.544 2.098l1.06-7.93zm-6.517 5.792c-.018 3.44 2.688 5.66 5.258 6.12l1.408-7.875c.287.051.577.193.824.456.265.282.512.75.51 1.338l-8-.04zm9.768 23.445c1.436-.845 2.784.068 3.16.945L20.796 33.5c1.237 2.89 4.934 4.759 8.256 2.802l-4.06-6.894z" fill="#7367F0" mask="url(#91VjC5DFt2xb)"/>
  </g>
  <defs>
    <clipPath id="91VjC5DFt2xa">
      <path fill="#fff" d="M0 0h39v35.852H0z"/>
    </clipPath>
  </defs>
</svg>
