<svg xmlns="http://www.w3.org/2000/svg" fill="none" viewBox="0 0 39 36">
  <g clip-path="url(#lzNiYVcf0j-a)">
    <circle cx="19.157" cy="19.5" r="13.5" stroke="#E9ECEF" stroke-width="4"/>
    <mask id="lzNiYVcf0j-b" fill="#fff">
      <path d="M14.808 32.352c-.342 1.01.199 2.12 1.244 2.334a15.5 15.5 0 105.48-30.503c-1.055-.163-1.948.688-1.98 1.755-.03 1.066.815 1.94 1.862 2.147A11.636 11.636 0 0117.3 30.987c-1.053-.17-2.15.355-2.492 1.365z"/>
    </mask>
    <path d="M17.3 30.987l-.639 3.949.639-3.949zm4.114-22.902l.775-3.924-.775 3.924zm.117-3.902L22.144.23l-.613 3.953zm-5.479 30.503l-.801 3.919.801-3.919zm-.801 3.919c1.943.397 3.94.497 5.921.29l-.826-7.956a11.5 11.5 0 01-3.493-.172l-1.602 7.838zm5.921.29a19.5 19.5 0 007.9-2.603l-4.068-6.89a11.5 11.5 0 01-4.659 1.537l.827 7.957zm7.9-2.603a19.498 19.498 0 006.095-5.66L28.6 26.065a11.501 11.501 0 01-3.595 3.338l4.068 6.889zm6.095-5.66a19.499 19.499 0 003.183-7.684l-7.874-1.415a11.501 11.501 0 01-1.877 4.532l6.568 4.567zm3.183-7.684a19.5 19.5 0 00-.31-8.312l-7.746 1.995a11.5 11.5 0 01.182 4.902l7.874 1.415zm-.31-8.312a19.5 19.5 0 00-3.744-7.427l-6.21 5.043a11.5 11.5 0 012.208 4.38l7.747-1.996zm-3.744-7.427a19.5 19.5 0 00-6.5-5.19L24.253 9.19a11.502 11.502 0 013.833 3.062l6.21-5.043zm-6.5-5.19A19.5 19.5 0 0022.145.23L20.92 8.136c1.155.179 2.28.534 3.333 1.054l3.545-7.172zm-7.158 9.99c.658.13 1.298.346 1.902.645l3.545-7.172a15.635 15.635 0 00-3.896-1.321l-1.551 7.848zm1.902.645a7.636 7.636 0 012.546 2.033l6.21-5.043a15.637 15.637 0 00-5.211-4.162l-3.545 7.172zm2.546 2.033a7.635 7.635 0 011.466 2.908L34.3 15.6a15.636 15.636 0 00-3.003-5.956l-6.21 5.043zm1.466 2.908a7.636 7.636 0 01.121 3.255l7.874 1.415A15.638 15.638 0 0034.3 15.6l-7.747 1.995zm.121 3.255a7.635 7.635 0 01-1.246 3.01l6.568 4.567a15.637 15.637 0 002.552-6.162l-7.874-1.415zm-1.246 3.01a7.634 7.634 0 01-2.387 2.216l4.067 6.889a15.636 15.636 0 004.888-4.538l-6.568-4.567zm-2.387 2.216a7.636 7.636 0 01-3.094 1.02l.827 7.957a15.637 15.637 0 006.334-2.088l-4.067-6.89zm-3.094 1.02c-.67.07-1.346.05-2.008-.057l-1.277 7.897c1.356.22 2.738.26 4.112.117l-.827-7.957zm-2.008-.057c-2.573-.416-5.827.802-6.92 4.031l7.578 2.565c-.192.57-.588.943-.945 1.131-.336.177-.68.22-.99.17l1.277-7.897zM15.554 5.82c-.1 3.407 2.527 5.682 5.084 6.188l1.551-7.848c.31.06.616.22.869.503.27.3.51.79.493 1.39l-7.997-.233zm6.59-5.59c-3.768-.585-6.499 2.47-6.59 5.59l7.997.233c-.029.987-.973 2.34-2.632 2.082L22.144.23zm-5.29 30.536c1.645.336 2.059 1.933 1.742 2.868L11.02 31.07c-1 2.956.496 6.771 4.232 7.535l1.602-7.838z" fill="#EA5455" mask="url(#lzNiYVcf0j-b)"/>
  </g>
  <defs>
    <clipPath id="lzNiYVcf0j-a">
      <path fill="#fff" d="M0 0h39v35.852H0z"/>
    </clipPath>
  </defs>
</svg>
