<svg xmlns="http://www.w3.org/2000/svg" fill="none" viewBox="0 0 28 28">
  <path d="M13.824 8.666c-2.794.091-5.073 2.364-5.163 5.164a5.336 5.336 0 005.509 5.51c2.794-.091 5.073-2.364 5.164-5.164a5.33 5.33 0 00-5.51-5.51z" fill="#4787F3"/>
  <path d="M14 0C9.035 0 4.676 2.585 2.188 6.479l5.628 9.732.006-.012a6.487 6.487 0 01-.386-2.205 6.565 6.565 0 017.652-6.467h11.325A13.981 13.981 0 0014 0z" fill="#DC483C"/>
  <path d="M26.419 7.533H15.094A6.562 6.562 0 0120.558 14a6.514 6.514 0 01-1.61 4.296l-5.662 9.687c.238.011.476.017.714.017 7.731 0 14-6.269 14-14 0-2.335-.573-4.534-1.581-6.467z" fill="#FFCE43"/>
  <path d="M14 20.558c-2.845 0-5.266-1.82-6.178-4.353l-.006.011L2.188 6.48A13.979 13.979 0 000 14c0 7.493 5.883 13.609 13.286 13.983l5.662-9.687A6.545 6.545 0 0114 20.558z" fill="#149F5C"/>
</svg>
