<svg xmlns="http://www.w3.org/2000/svg" fill="none" viewBox="0 0 190 85">
  <path fill-rule="evenodd" clip-rule="evenodd" d="M169.19 3.197h13.102v81.377H169.19V3.197z" fill="#C5C5C5"/>
  <path fill-rule="evenodd" clip-rule="evenodd" d="M109.581 3.197h64.855V33.41h-51.753v51.164h-13.102V3.197z" fill="#D2D2D2"/>
  <path fill-rule="evenodd" clip-rule="evenodd" d="M17.48 0h99.886v33.35H17.48V0z" fill="#EBEBEB"/>
  <path fill-rule="evenodd" clip-rule="evenodd" d="M107.616 3.197h7.861V33.35h-7.861V3.197z" fill="#C3C3C3"/>
  <path fill-rule="evenodd" clip-rule="evenodd" d="M109.581 3.197h7.862v81.377h-7.862V3.197z" fill="#EBEBEB"/>
  <path fill-rule="evenodd" clip-rule="evenodd" d="M112.233 4.796A4.796 4.796 0 01117.029 0h67.678a4.796 4.796 0 110 9.591h-67.678a4.796 4.796 0 01-4.796-4.795z" fill="#C5C5C5"/>
  <path fill-rule="evenodd" clip-rule="evenodd" d="M9.695 1.918h99.886v9.591H9.695V1.92z" fill="#D2D2D2"/>
  <path fill-rule="evenodd" clip-rule="evenodd" d="M0 4.796A4.796 4.796 0 014.796 0h114.402a4.796 4.796 0 010 9.591H4.796A4.796 4.796 0 010 4.796z" fill="#EBEBEB"/>
</svg>
