<svg xmlns="http://www.w3.org/2000/svg" fill="none" viewBox="0 0 67 81">
  <path fill-rule="evenodd" clip-rule="evenodd" d="M42.671 60.534s-3.443 8.162-.62 10.326c2.827 2.164 8.325 7.515 8.325 7.515l-17.815-3.82 4.398-14.974 5.712.953z" fill="url(#mrZLXyuG-V5a)"/>
  <path fill-rule="evenodd" clip-rule="evenodd" d="M41.648 65.909s-.437 3.83.826 5.137c1.264 1.306 8.103 6.282 8.64 7.226.535.944-.423 1.986-.423 1.986s-7.388.635-10.71-1.361c-2.4-1.442-5.977-4.03-5.977-4.03l-.948 2.545-2.686-.108s-.355-3.137.282-4.64c.637-1.505 3.92-9.159 3.92-9.159s1.263 1.122 2.606 1.687c1.342.565 3.024 2.112 3.024 2.112l1.446-1.395z" fill="#323740"/>
  <path fill-rule="evenodd" clip-rule="evenodd" d="M12.87.017c5.989.264 39.324 7.543 45.38 8.78 6.057 1.237 11.177 7.929 6.559 15.677-5.187 8.699-18.571 33.402-21.82 38.97-1.609 2.757-9.723 1.211-7.817-3.415 3.553-8.624 5.203-30.288 14.262-38.188 0 0-30.464 5.235-43.623-.76C-3.752 16.72-1.589-.622 12.87.016z" fill="#42474F"/>
  <defs>
    <linearGradient id="mrZLXyuG-V5a" x1="29.479" y1="55.006" x2="31.002" y2="77.405" gradientUnits="userSpaceOnUse">
      <stop stop-color="#FDC6C6"/>
      <stop offset="1" stop-color="#FAB2B2"/>
    </linearGradient>
  </defs>
</svg>
