<svg xmlns="http://www.w3.org/2000/svg" fill="none" viewBox="0 0 48 41">
  <path fill-rule="evenodd" clip-rule="evenodd" d="M28.735 24.054s5.655-4.942 7.386-5.515c1.731-.574 11.87-1.263 11.807.033-.073 1.389-5.519 1.309-6.083 1.992-.564.682-.693 5.35-2.826 5.874-2.128.524-8.51 1.428-8.51 1.428l-15.266 9.09-.652-8.306 14.144-4.596z" fill="#FFE0D1"/>
  <path fill-rule="evenodd" clip-rule="evenodd" d="M13.69 3.131C7.732 11.433 2.645 24.079.692 29.009c-1.953 4.93.017 12.367 8.603 10.907 1.45-.247 4.702-1.235 4.702-1.235l2.052-11.419-2.646 1.097S21.935 13.425 24.02 9.422c3.48-6.686-5.082-13.606-10.33-6.291z" fill="#FFB66F"/>
  <path fill-rule="evenodd" clip-rule="evenodd" d="M13.402 28.36s-4.334 2.09-3.789 1.17c.545-.92 5.425-4.075 5.425-4.075l-1.636 2.904z" fill="#000" fill-opacity=".16"/>
  <path fill-rule="evenodd" clip-rule="evenodd" d="M13.816 27.831L12.398 40.18l5.606-1.76-.846-12.1-3.342 1.512z" fill="#FFEDC2"/>
</svg>
